<svg width="45" height="45" viewBox="0 0 45 45" fill="none" xmlns="http://www.w3.org/2000/svg">
<g clip-path="url(#clip0_549_1384)">
<path d="M42.1875 33.75C42.1875 34.4959 41.8912 35.2113 41.3637 35.7387C40.8363 36.2662 40.1209 36.5625 39.375 36.5625H5.625C4.87908 36.5625 4.16371 36.2662 3.63626 35.7387C3.10882 35.2113 2.8125 34.4959 2.8125 33.75V16.875C2.8125 16.1291 3.10882 15.4137 3.63626 14.8863C4.16371 14.3588 4.87908 14.0625 5.625 14.0625H8.92125C11.1579 14.0613 13.3025 13.1721 14.8837 11.5903L17.2181 9.26156C17.7441 8.73546 18.457 8.43915 19.2009 8.4375H25.7934C26.5393 8.43766 27.2546 8.73408 27.7819 9.26156L30.1106 11.5903C30.8943 12.3742 31.8247 12.996 32.8487 13.4202C33.8728 13.8444 34.9703 14.0626 36.0788 14.0625H39.375C40.1209 14.0625 40.8363 14.3588 41.3637 14.8863C41.8912 15.4137 42.1875 16.1291 42.1875 16.875V33.75ZM5.625 11.25C4.13316 11.25 2.70242 11.8426 1.64752 12.8975C0.592632 13.9524 0 15.3832 0 16.875L0 33.75C0 35.2418 0.592632 36.6726 1.64752 37.7275C2.70242 38.7824 4.13316 39.375 5.625 39.375H39.375C40.8668 39.375 42.2976 38.7824 43.3525 37.7275C44.4074 36.6726 45 35.2418 45 33.75V16.875C45 15.3832 44.4074 13.9524 43.3525 12.8975C42.2976 11.8426 40.8668 11.25 39.375 11.25H36.0788C34.587 11.2497 33.1565 10.6568 32.1019 9.60188L29.7731 7.27312C28.7185 6.21816 27.288 5.62532 25.7962 5.625H19.2038C17.712 5.62532 16.2815 6.21816 15.2269 7.27312L12.8981 9.60188C11.8435 10.6568 10.413 11.2497 8.92125 11.25H5.625Z" fill="black" fill-opacity="0.5"/>
<path d="M22.5 30.9375C20.6352 30.9375 18.8468 30.1967 17.5282 28.8781C16.2095 27.5595 15.4688 25.7711 15.4688 23.9062C15.4688 22.0414 16.2095 20.253 17.5282 18.9344C18.8468 17.6158 20.6352 16.875 22.5 16.875C24.3648 16.875 26.1532 17.6158 27.4718 18.9344C28.7905 20.253 29.5312 22.0414 29.5312 23.9062C29.5312 25.7711 28.7905 27.5595 27.4718 28.8781C26.1532 30.1967 24.3648 30.9375 22.5 30.9375ZM22.5 33.75C25.1107 33.75 27.6145 32.7129 29.4606 30.8668C31.3066 29.0208 32.3438 26.517 32.3438 23.9062C32.3438 21.2955 31.3066 18.7917 29.4606 16.9457C27.6145 15.0996 25.1107 14.0625 22.5 14.0625C19.8893 14.0625 17.3855 15.0996 15.5394 16.9457C13.6934 18.7917 12.6562 21.2955 12.6562 23.9062C12.6562 26.517 13.6934 29.0208 15.5394 30.8668C17.3855 32.7129 19.8893 33.75 22.5 33.75ZM8.4375 18.2812C8.4375 18.6542 8.28934 19.0119 8.02562 19.2756C7.7619 19.5393 7.40421 19.6875 7.03125 19.6875C6.65829 19.6875 6.3006 19.5393 6.03688 19.2756C5.77316 19.0119 5.625 18.6542 5.625 18.2812C5.625 17.9083 5.77316 17.5506 6.03688 17.2869C6.3006 17.0232 6.65829 16.875 7.03125 16.875C7.40421 16.875 7.7619 17.0232 8.02562 17.2869C8.28934 17.5506 8.4375 17.9083 8.4375 18.2812Z" fill="black" fill-opacity="0.5"/>
</g>
<defs>
<clipPath id="clip0_549_1384">
<rect width="45" height="45" fill="white"/>
</clipPath>
</defs>
</svg>
